<svg width="39" height="39" viewBox="0 0 39 39" fill="none" xmlns="http://www.w3.org/2000/svg">
<circle cx="19.5" cy="19.5" r="18.5" fill="#FCE7FF" stroke="#79008C" stroke-width="2"/>
<path d="M7.12463 23.2496C7.05452 23.1751 6.96906 23.116 6.87485 23.0743C6.78063 23.0327 6.67984 23.013 6.57685 23.013C6.47387 23.0108 6.37308 23.0327 6.27886 23.0722C6.18465 23.1138 6.09919 23.1729 6.02908 23.2474C5.95677 23.3197 5.8998 23.4052 5.86255 23.4994C5.8253 23.5958 5.80558 23.6966 5.80558 23.7974C5.80339 23.9004 5.82311 24.0012 5.86255 24.0954C5.90199 24.1896 5.95896 24.2751 6.03127 24.3474C6.1014 24.4219 6.1864 24.4809 6.28075 24.5205C6.37511 24.5602 6.47673 24.5795 6.57905 24.5774C6.68115 24.578 6.7823 24.5579 6.87644 24.5184C6.97058 24.4788 7.05574 24.4207 7.12682 24.3474C7.20132 24.2773 7.25829 24.1918 7.29773 24.0976C7.33717 24.0034 7.35689 23.9026 7.35689 23.7996C7.35689 23.6966 7.33717 23.5958 7.29773 23.5016C7.2561 23.4052 7.19913 23.3197 7.12463 23.2496ZM16.2944 21.4705C16.2835 21.9613 16.3076 22.4543 16.3645 22.9429H16.3382C16.2769 22.8224 16.141 22.5989 15.9329 22.2724L10.9372 14.4304H9.42091V24.4416H10.5866V17.2044C10.5997 16.7464 10.58 16.2885 10.5318 15.8305H10.5756C10.6589 16.0496 10.7663 16.26 10.8933 16.4572L16.0249 24.4416H17.4601V14.4304H16.2944V21.4705ZM25.3634 23.3417H21.2441V19.8731H24.8485V18.817H21.2441V15.4909H25.1114V14.4304H20.05V24.4416H25.3568L25.3634 23.3417ZM26.2552 14.4304V15.4909H29.1255V24.4416H30.2912V15.4909H33.1944V14.4304H26.2552Z" fill="#2F0030"/>
</svg>
