<svg width="47" height="47" viewBox="0 0 47 47" fill="none" xmlns="http://www.w3.org/2000/svg">
<g filter="url(#filter0_d_6_36)">
<circle cx="23.5" cy="19.5" r="18.5" fill="#FCE7FF" stroke="#79008C" stroke-width="2"/>
<path d="M11.1246 23.2496C11.0545 23.1751 10.9691 23.116 10.8748 23.0743C10.7806 23.0327 10.6798 23.013 10.5769 23.013C10.4739 23.0108 10.3731 23.0327 10.2789 23.0722C10.1846 23.1138 10.0992 23.1729 10.0291 23.2474C9.95677 23.3197 9.8998 23.4052 9.86255 23.4994C9.8253 23.5958 9.80558 23.6966 9.80558 23.7974C9.80339 23.9004 9.82311 24.0012 9.86255 24.0954C9.90199 24.1896 9.95896 24.2751 10.0313 24.3474C10.1014 24.4219 10.1864 24.4809 10.2808 24.5205C10.3751 24.5602 10.4767 24.5795 10.579 24.5774C10.6811 24.578 10.7823 24.5579 10.8764 24.5184C10.9706 24.4788 11.0557 24.4207 11.1268 24.3474C11.2013 24.2773 11.2583 24.1918 11.2977 24.0976C11.3372 24.0034 11.3569 23.9026 11.3569 23.7996C11.3569 23.6966 11.3372 23.5958 11.2977 23.5016C11.2561 23.4052 11.1991 23.3197 11.1246 23.2496ZM20.2944 21.4705C20.2835 21.9613 20.3076 22.4543 20.3645 22.9429H20.3382C20.2769 22.8224 20.141 22.5989 19.9329 22.2724L14.9372 14.4304H13.4209V24.4416H14.5866V17.2044C14.5997 16.7464 14.58 16.2885 14.5318 15.8305H14.5756C14.6589 16.0496 14.7663 16.26 14.8933 16.4572L20.0249 24.4416H21.4601V14.4304H20.2944V21.4705ZM29.3634 23.3417H25.2441V19.8731H28.8485V18.817H25.2441V15.4909H29.1114V14.4304H24.05V24.4416H29.3568L29.3634 23.3417ZM30.2552 14.4304V15.4909H33.1255V24.4416H34.2912V15.4909H37.1944V14.4304H30.2552Z" fill="#2F0030"/>
</g>
<defs>
<filter id="filter0_d_6_36" x="0" y="0" width="47" height="47" filterUnits="userSpaceOnUse" color-interpolation-filters="sRGB">
<feFlood flood-opacity="0" result="BackgroundImageFix"/>
<feColorMatrix in="SourceAlpha" type="matrix" values="0 0 0 0 0 0 0 0 0 0 0 0 0 0 0 0 0 0 127 0" result="hardAlpha"/>
<feOffset dy="4"/>
<feGaussianBlur stdDeviation="2"/>
<feComposite in2="hardAlpha" operator="out"/>
<feColorMatrix type="matrix" values="0 0 0 0 0 0 0 0 0 0 0 0 0 0 0 0 0 0 0.25 0"/>
<feBlend mode="normal" in2="BackgroundImageFix" result="effect1_dropShadow_6_36"/>
<feBlend mode="normal" in="SourceGraphic" in2="effect1_dropShadow_6_36" result="shape"/>
</filter>
</defs>
</svg>
