<svg width="49" height="49" viewBox="0 0 49 49" fill="none" xmlns="http://www.w3.org/2000/svg">
<g filter="url(#filter0_d_103_22)">
<path d="M24.2575 39.5C34.6366 39.5 43.0149 30.9736 43.0149 20.5C43.0149 10.0264 34.6366 1.5 24.2575 1.5C13.8783 1.5 5.5 10.0264 5.5 20.5C5.5 30.9736 13.8783 39.5 24.2575 39.5Z" fill="white" stroke="#1E254C" stroke-width="3"/>
<path fill-rule="evenodd" clip-rule="evenodd" d="M23.7053 8.32001C30.487 8.32001 35.9926 13.903 35.9926 20.78C35.9926 27.657 30.487 33.24 23.7053 33.24C16.9236 33.24 11.418 27.657 11.418 20.78C11.418 13.903 16.9236 8.32001 23.7053 8.32001ZM23.7053 14.55C27.0957 14.55 29.8489 17.341 29.8489 20.78C29.8489 24.2181 27.0957 27.01 23.7053 27.01C20.3149 27.01 17.5616 24.2181 17.5616 20.78C17.5616 17.341 20.314 14.55 23.7053 14.55Z" fill="#1E254C"/>
<path d="M23.5671 20.78L38.8918 11.6868L38.8918 29.8733L23.5671 20.78Z" fill="white"/>
<path fill-rule="evenodd" clip-rule="evenodd" d="M31.5745 22.285C31.5745 22.0337 31.7782 21.83 32.0295 21.83H38.2986C38.5499 21.83 38.7536 22.0337 38.7536 22.285V22.285C38.7536 22.5363 38.5499 22.74 38.2986 22.74H32.0295C31.7782 22.74 31.5745 22.5363 31.5745 22.285V22.285ZM31.5745 19.555C31.5745 19.3037 31.7782 19.1 32.0295 19.1H38.2986C38.5499 19.1 38.7536 19.3037 38.7536 19.555V19.555C38.7536 19.8063 38.5499 20.01 38.2986 20.01H32.0295C31.7782 20.01 31.5745 19.8063 31.5745 19.555V19.555Z" fill="#1E254C"/>
<path fill-rule="evenodd" clip-rule="evenodd" d="M33.3694 17.7287C33.3694 17.4809 33.5703 17.28 33.8181 17.28V17.28C34.0659 17.28 34.2668 17.4809 34.2668 17.7287V24.1113C34.2668 24.3591 34.0659 24.56 33.8181 24.56V24.56C33.5703 24.56 33.3694 24.3591 33.3694 24.1113V17.7287ZM36.0615 17.7287C36.0615 17.4809 36.2624 17.28 36.5102 17.28V17.28C36.758 17.28 36.9589 17.4809 36.9589 17.7287V24.1113C36.9589 24.3591 36.758 24.56 36.5102 24.56V24.56C36.2624 24.56 36.0615 24.3591 36.0615 24.1113V17.7287Z" fill="#1E254C"/>
</g>
<defs>
<filter id="filter0_d_103_22" x="0" y="0" width="48.5149" height="49" filterUnits="userSpaceOnUse" color-interpolation-filters="sRGB">
<feFlood flood-opacity="0" result="BackgroundImageFix"/>
<feColorMatrix in="SourceAlpha" type="matrix" values="0 0 0 0 0 0 0 0 0 0 0 0 0 0 0 0 0 0 127 0" result="hardAlpha"/>
<feOffset dy="4"/>
<feGaussianBlur stdDeviation="2"/>
<feComposite in2="hardAlpha" operator="out"/>
<feColorMatrix type="matrix" values="0 0 0 0 0 0 0 0 0 0 0 0 0 0 0 0 0 0 0.25 0"/>
<feBlend mode="normal" in2="BackgroundImageFix" result="effect1_dropShadow_103_22"/>
<feBlend mode="normal" in="SourceGraphic" in2="effect1_dropShadow_103_22" result="shape"/>
</filter>
</defs>
</svg>
