<svg width="39" height="39" viewBox="0 0 39 39" fill="none" xmlns="http://www.w3.org/2000/svg">
<path d="M19.5 38C29.7173 38 38 29.7173 38 19.5C38 9.28273 29.7173 1 19.5 1C9.28273 1 1 9.28273 1 19.5C1 29.7173 9.28273 38 19.5 38Z" fill="#FFEDF2" stroke="#BE005B" stroke-width="2"/>
<path d="M29.6186 18.996L20.4906 9.86798C20.2106 9.58798 19.8186 9.41998 19.4266 9.41998C19.0346 9.41998 18.6426 9.58798 18.3626 9.86798L16.4026 11.828L18.6986 14.124C18.9226 14.012 19.1466 13.956 19.4266 13.956C20.3786 13.956 21.1066 14.684 21.1066 15.636C21.1066 15.916 21.0506 16.14 20.9386 16.364L23.1786 18.604C23.4026 18.492 23.6266 18.436 23.9066 18.436C24.8586 18.436 25.5866 19.164 25.5866 20.116C25.5866 21.068 24.8586 21.796 23.9066 21.796C22.9546 21.796 22.2266 21.068 22.2266 20.116C22.2266 19.836 22.2826 19.612 22.3946 19.388L20.1546 17.148C20.0986 17.148 20.0426 17.204 19.9866 17.204V23.028C20.6586 23.252 21.1066 23.868 21.1066 24.596C21.1066 25.548 20.3786 26.276 19.4266 26.276C18.4746 26.276 17.7466 25.548 17.7466 24.596C17.7466 23.868 18.1946 23.252 18.8666 23.028V17.148C18.1946 16.924 17.7466 16.308 17.7466 15.58C17.7466 15.3 17.8026 15.076 17.9146 14.852L15.6186 12.556L9.23462 18.996C8.95462 19.276 8.78662 19.668 8.78662 20.06C8.78662 20.452 8.95462 20.844 9.23462 21.124L18.3626 30.252C18.6426 30.532 19.0346 30.7 19.4266 30.7C19.8186 30.7 20.2106 30.532 20.4906 30.252L29.6186 21.124C29.8986 20.844 30.0666 20.452 30.0666 20.06C30.0666 19.668 29.8986 19.276 29.6186 18.996Z" fill="#BE005B"/>
</svg>
