<svg width="47" height="47" viewBox="0 0 47 47" fill="none" xmlns="http://www.w3.org/2000/svg">
<g filter="url(#filter0_d_6_46)">
<path d="M23.5 38C33.7173 38 42 29.7173 42 19.5C42 9.28273 33.7173 1 23.5 1C13.2827 1 5 9.28273 5 19.5C5 29.7173 13.2827 38 23.5 38Z" fill="white" stroke="#EBA900" stroke-width="2"/>
<path d="M23.5 38C33.7173 38 42 29.7173 42 19.5C42 9.28273 33.7173 1 23.5 1C13.2827 1 5 9.28273 5 19.5C5 29.7173 13.2827 38 23.5 38Z" fill="white" stroke="#EBA900" stroke-width="2"/>
<path d="M35.8817 24.8677C35.6408 23.3657 34.6613 22.1046 31.7605 20.928C30.7529 20.4649 29.6295 20.1332 29.2947 19.3696C29.1758 18.9253 29.1602 18.6749 29.2353 18.4058C29.4512 17.5328 30.4932 17.2605 31.3193 17.5109C31.8513 17.6892 32.3551 18.0992 32.6586 18.7532C34.0793 17.8332 34.0762 17.8394 35.0681 17.2074C34.7052 16.6441 34.5111 16.3844 34.2733 16.1434C33.419 15.189 32.255 14.6977 30.3931 14.7353C30.0708 14.776 29.7454 14.8197 29.423 14.8604C28.4937 15.0951 27.6081 15.5833 27.0886 16.2373C25.5303 18.0053 25.9746 21.1001 27.8709 22.3737C29.7391 23.7756 32.4834 24.0948 32.8339 25.406C33.175 27.0112 31.6542 27.5307 30.1427 27.3461C29.0287 27.1145 28.4092 26.5481 27.7395 25.5186C26.5066 26.2321 26.5066 26.2321 25.2393 26.9612C25.5397 27.6183 25.8557 27.9156 26.3595 28.4851C28.744 30.904 34.7114 30.7851 35.7816 27.1239C35.8254 26.9987 36.1133 26.1601 35.8817 24.8677ZM23.5526 14.9293H20.4734C20.4734 17.5891 20.4609 20.2302 20.4609 22.89C20.4609 24.5829 20.5486 26.135 20.2732 26.6107C19.8226 27.5463 18.6554 27.4305 18.1234 27.249C17.582 26.983 17.3067 26.6044 16.9875 26.0693C16.8999 25.916 16.8342 25.7971 16.8122 25.7877C15.9767 26.2977 15.1443 26.8109 14.3088 27.321C14.7251 28.1753 15.3384 28.9169 16.1238 29.3988C17.2973 30.1029 18.8744 30.3188 20.5235 29.9401C21.5968 29.6272 22.5231 28.9795 23.0081 27.9938C23.709 26.7014 23.5588 25.1368 23.5526 23.4063C23.5682 20.5838 23.5526 17.7612 23.5526 14.9293Z" fill="black"/>
</g>
<defs>
<filter id="filter0_d_6_46" x="0" y="0" width="47" height="47" filterUnits="userSpaceOnUse" color-interpolation-filters="sRGB">
<feFlood flood-opacity="0" result="BackgroundImageFix"/>
<feColorMatrix in="SourceAlpha" type="matrix" values="0 0 0 0 0 0 0 0 0 0 0 0 0 0 0 0 0 0 127 0" result="hardAlpha"/>
<feOffset dy="4"/>
<feGaussianBlur stdDeviation="2"/>
<feComposite in2="hardAlpha" operator="out"/>
<feColorMatrix type="matrix" values="0 0 0 0 0 0 0 0 0 0 0 0 0 0 0 0 0 0 0.25 0"/>
<feBlend mode="normal" in2="BackgroundImageFix" result="effect1_dropShadow_6_46"/>
<feBlend mode="normal" in="SourceGraphic" in2="effect1_dropShadow_6_46" result="shape"/>
</filter>
</defs>
</svg>
