<svg width="39" height="39" viewBox="0 0 39 39" fill="none" xmlns="http://www.w3.org/2000/svg">
<path d="M19.5 38C29.7173 38 38 29.7173 38 19.5C38 9.28273 29.7173 1 19.5 1C9.28273 1 1 9.28273 1 19.5C1 29.7173 9.28273 38 19.5 38Z" fill="#FFEDF2" stroke="#6A0000" stroke-width="2"/>
<path d="M29.9198 20.3449C29.7771 20.1366 27.9467 16.7687 27.6376 16.2132C27.3048 15.6576 27.1622 15.7618 26.9482 15.7965C26.7343 15.8312 24.4284 16.4215 24.1669 16.4562C23.9054 16.5256 23.739 16.6645 23.9054 17.0117C24.048 17.3242 25.5695 20.449 25.9023 21.1782L19.8404 23.2961L15.0384 11.5259C14.8482 11.1093 14.8006 10.9704 14.3727 11.0051C13.9449 11.0398 10.593 11.4565 10.3552 11.4565C10.1175 11.4912 9.85603 11.6301 10.0938 12.4634C10.3315 13.2966 14.135 25.2404 14.2301 25.5876C14.3252 25.9348 14.6105 26.4904 15.2523 26.2821C15.9179 26.039 18.2001 25.171 19.46 24.6849C20.1256 26.4209 21.4569 29.9624 21.7184 30.4832C22.0512 31.1776 22.2889 31.0387 22.7881 30.8304C23.1922 30.6568 29.0164 27.6014 29.2779 27.4278C29.5394 27.2542 29.7058 27.1501 29.5156 26.7681C29.373 26.4904 27.8516 23.4697 27.0433 21.9073C27.5901 21.699 29.5632 20.9351 29.7771 20.831C30.0149 20.7268 30.0624 20.5532 29.9198 20.3449ZM18.9132 23.6433C18.8419 23.678 15.4425 24.8585 15.2761 24.928C15.0859 24.9974 15.0859 24.9627 15.0859 24.8585C15.0384 24.7544 11.0446 12.6717 10.9733 12.5328C10.9258 12.3939 10.9258 12.255 10.9733 12.255C11.0209 12.255 14.1826 11.8384 14.2777 11.8384C14.3965 11.8384 14.3727 11.8731 14.4203 11.9773C14.4203 11.9773 18.8657 23.1919 18.937 23.3655C19.0321 23.5391 18.9846 23.6086 18.9132 23.6433ZM28.4697 26.2473C28.5172 26.3862 28.5885 26.4557 28.3983 26.5251C28.2319 26.6293 22.6692 29.3722 22.5504 29.4416C22.4315 29.511 22.3602 29.5458 22.2176 29.2333C22.0749 28.9208 20.2683 24.3724 20.2683 24.3724L26.1875 22.1156C26.3302 22.0462 26.3777 22.0115 26.4728 22.2198C26.5679 22.4628 28.4221 26.1432 28.4697 26.2473ZM28.85 20.1366C28.7074 20.1713 26.5441 20.9698 26.5441 20.9698L24.7612 17.4284C24.7137 17.3242 24.6661 17.22 24.785 17.1853C24.9038 17.1506 26.9245 16.6298 27.0196 16.5951C27.1146 16.5604 27.186 16.5256 27.3048 16.7687C27.4237 16.977 28.9451 19.8241 29.0164 19.9282C29.0877 20.0324 28.9927 20.1018 28.85 20.1366Z" fill="#FB503B"/>
</svg>
