<svg width="38" height="38" viewBox="0 0 38 38" fill="none" xmlns="http://www.w3.org/2000/svg">
<path d="M19 36C28.3888 36 36 28.3888 36 19C36 9.61116 28.3888 2 19 2C9.61116 2 2 9.61116 2 19C2 28.3888 9.61116 36 19 36Z" fill="#0535C1"/>
<path d="M30.2045 13.9127H29.1874C28.7562 12.6927 27.5945 11.8199 26.228 11.8199C24.4951 11.8199 23.0889 13.2262 23.0889 14.959C23.0889 16.6919 24.4951 18.0984 26.228 18.0984H30.2045C30.7595 18.0982 31.2917 17.8776 31.6841 17.4851C32.0765 17.0926 32.2971 16.5604 32.2972 16.0054C32.297 15.4504 32.0764 14.9183 31.684 14.5259C31.2916 14.1335 30.7594 13.9129 30.2045 13.9127Z" fill="url(#paint0_radial_112_9)"/>
<path d="M14.3638 9.14771H23.2502V16.875H14.3638V9.14771Z" fill="#FFF176"/>
<path d="M13.3977 20.9316H24.0227V31.5566H13.3977V20.9316Z" fill="white"/>
<path d="M25.1817 16.1023H26.7271V19.193H11.2727V16.1023H12.8181V9.92034L19 6.05682L25.1817 9.92034V16.1023ZM22.0907 16.1023V11.6335L19 9.70214L15.909 11.6335V16.1023H22.0907Z" fill="#F4481E"/>
<path d="M10.5864 33.7751L13.2048 16.1019H24.7956L27.4137 33.7751C24.933 35.1909 22.0611 35.9996 19.0002 35.9996C15.9394 35.9996 13.0674 35.1909 10.5864 33.7751ZM22.461 21.434L15.1894 23.7968L14.3056 29.7617L23.2636 26.8507L22.461 21.434Z" fill="#F4481E"/>
<path d="M25.167 19.193L27.3273 33.7752C24.8466 35.191 21.9746 35.9997 18.9138 35.9997C15.8529 35.9997 12.981 35.191 10.5 33.7752L12.6605 19.193H11.2728V16.1023H12.8182V9.92034L19.0001 6.05682L25.1818 9.92034V16.1023H26.7272V19.193H25.167Z" fill="url(#paint1_linear_112_9)"/>
<path d="M19.0001 16.1023H12.8181V9.92034L19.0001 6.05682V16.1023Z" fill="url(#paint2_linear_112_9)"/>
<path d="M19.0002 35.9997C16.05 36.0014 13.1503 35.2347 10.5864 33.7751L12.5235 19.1929H18.9999L19.0002 35.9997Z" fill="url(#paint3_linear_112_9)"/>
<path d="M19 16.1022H11.2727V19.1932H19V16.1022Z" fill="url(#paint4_linear_112_9)"/>
<path d="M19 36C28.3888 36 36 28.3888 36 19C36 9.61116 28.3888 2 19 2C9.61116 2 2 9.61116 2 19C2 28.3888 9.61116 36 19 36Z" fill="url(#paint5_radial_112_9)"/>
<path d="M14.3634 17.8406H13.1898C12.6926 16.4329 11.3524 15.4259 9.77546 15.4259C7.77604 15.4259 6.15332 17.0486 6.15332 19.048C6.15332 21.0475 7.77604 22.6702 9.77546 22.6702H14.3634C15.6964 22.6702 16.7784 21.5885 16.7784 20.2555C16.7784 18.9226 15.6964 17.8406 14.3634 17.8406Z" fill="url(#paint6_radial_112_9)"/>
<g opacity="0.1">
<path d="M19 2.17763C28.3596 2.17763 35.9496 9.74065 35.998 19.0887C35.998 19.0597 35.9997 19.0307 35.9997 19C35.9997 9.61142 28.3886 2 19 2C9.61142 2 2 9.61142 2 19C2 19.029 2.00203 19.058 2.00203 19.0887C2.05013 9.74065 9.64039 2.17763 19 2.17763Z" fill="white"/>
<path d="M35.998 18.9109C35.9496 28.259 28.3596 35.822 19 35.822C9.64039 35.822 2.05013 28.259 2.00203 18.9109C2.00203 18.942 2 18.9709 2 18.9999C2 28.3885 9.61142 35.9996 19 35.9996C28.3886 35.9996 35.9997 28.3885 35.9997 18.9999C35.9997 18.9709 35.998 18.942 35.998 18.9109Z" fill="#263238"/>
</g>
<path d="M19 37C28.9411 37 37 28.9411 37 19C37 9.05887 28.9411 1 19 1C9.05887 1 1 9.05887 1 19C1 28.9411 9.05887 37 19 37Z" fill="url(#paint7_radial_112_9)" stroke="white" stroke-width="2"/>
<defs>
<radialGradient id="paint0_radial_112_9" cx="0" cy="0" r="1" gradientUnits="userSpaceOnUse" gradientTransform="translate(86.6861 101.407) scale(907.648 907.653)">
<stop stop-color="white" stop-opacity="0.1"/>
<stop offset="1" stop-color="white" stop-opacity="0"/>
</radialGradient>
<linearGradient id="paint1_linear_112_9" x1="626.816" y1="615.635" x2="1817.18" y2="2577.12" gradientUnits="userSpaceOnUse">
<stop stop-color="white" stop-opacity="0.1"/>
<stop offset="1" stop-color="white" stop-opacity="0"/>
</linearGradient>
<linearGradient id="paint2_linear_112_9" x1="438.973" y1="666.608" x2="131.282" y2="516.822" gradientUnits="userSpaceOnUse">
<stop stop-color="#262626" stop-opacity="0.1"/>
<stop offset="1" stop-color="#262626" stop-opacity="0"/>
</linearGradient>
<linearGradient id="paint3_linear_112_9" x1="536.709" y1="239.126" x2="-328.077" y2="1247.25" gradientUnits="userSpaceOnUse">
<stop stop-color="#262626" stop-opacity="0.1"/>
<stop offset="1" stop-color="#262626" stop-opacity="0"/>
</linearGradient>
<linearGradient id="paint4_linear_112_9" x1="19" y1="170.652" x2="11.2727" y2="170.652" gradientUnits="userSpaceOnUse">
<stop stop-color="#262626" stop-opacity="0.1"/>
<stop offset="1" stop-color="#262626" stop-opacity="0"/>
</linearGradient>
<radialGradient id="paint5_radial_112_9" cx="0" cy="0" r="1" gradientUnits="userSpaceOnUse" gradientTransform="translate(494.626 497.856) scale(3399.08)">
<stop stop-color="white" stop-opacity="0.1"/>
<stop offset="1" stop-color="white" stop-opacity="0"/>
</radialGradient>
<radialGradient id="paint6_radial_112_9" cx="0" cy="0" r="1" gradientUnits="userSpaceOnUse" gradientTransform="translate(79.5335 118.794) scale(1047.29 1047.28)">
<stop stop-color="white" stop-opacity="0.1"/>
<stop offset="1" stop-color="white" stop-opacity="0"/>
</radialGradient>
<radialGradient id="paint7_radial_112_9" cx="0" cy="0" r="1" gradientUnits="userSpaceOnUse" gradientTransform="translate(494.626 497.856) scale(3399.08)">
<stop stop-color="white" stop-opacity="0.1"/>
<stop offset="1" stop-color="white" stop-opacity="0"/>
</radialGradient>
</defs>
</svg>
