<svg width="47" height="47" viewBox="0 0 47 47" fill="none" xmlns="http://www.w3.org/2000/svg">
<g filter="url(#filter0_d_106_36)">
<circle cx="23.5" cy="19.5" r="18.5" fill="#DDE9FF" stroke="#003191" stroke-width="2"/>
<path d="M12.72 21.3129V11.8L20.9565 16.5564V19.7274L15.4655 16.5564V22.8984L12.72 21.3129Z" fill="#1348B0"/>
<path d="M20.9565 16.5553L29.1931 11.8V21.3105L23.7021 24.4806L20.9565 22.8956L26.4476 19.7254V16.5553L20.9565 19.7254V16.5553Z" fill="#003191"/>
<path d="M20.9565 22.8984V26.0686L26.4476 29.2387V26.0686L20.9565 22.8984Z" fill="#003191"/>
<path d="M26.4475 29.2387L34.6841 24.4827V18.1414L31.9385 19.7267V22.8974L26.4475 26.0681V29.2387ZM31.9385 16.5561V13.3854L34.6841 11.8V14.9707L31.9385 16.5561Z" fill="#101E50"/>
</g>
<defs>
<filter id="filter0_d_106_36" x="0" y="0" width="47" height="47" filterUnits="userSpaceOnUse" color-interpolation-filters="sRGB">
<feFlood flood-opacity="0" result="BackgroundImageFix"/>
<feColorMatrix in="SourceAlpha" type="matrix" values="0 0 0 0 0 0 0 0 0 0 0 0 0 0 0 0 0 0 127 0" result="hardAlpha"/>
<feOffset dy="4"/>
<feGaussianBlur stdDeviation="2"/>
<feComposite in2="hardAlpha" operator="out"/>
<feColorMatrix type="matrix" values="0 0 0 0 0 0 0 0 0 0 0 0 0 0 0 0 0 0 0.25 0"/>
<feBlend mode="normal" in2="BackgroundImageFix" result="effect1_dropShadow_106_36"/>
<feBlend mode="normal" in="SourceGraphic" in2="effect1_dropShadow_106_36" result="shape"/>
</filter>
</defs>
</svg>
