<svg width="47" height="47" viewBox="0 0 47 47" fill="none" xmlns="http://www.w3.org/2000/svg">
<g filter="url(#filter0_d_6_49)">
<circle cx="23.5" cy="19.5" r="18.5" fill="#E9EEFF" stroke="#003191" stroke-width="2"/>
<path d="M36.3386 19.499C36.3386 17.7971 34.2073 16.1843 30.9397 15.1841C31.6938 11.8537 31.3586 9.20399 29.8819 8.35567C29.5416 8.15668 29.1436 8.06243 28.709 8.06243V9.23017C28.9498 9.23017 29.1436 9.2773 29.3059 9.36632C30.0181 9.77477 30.327 11.33 30.0862 13.3304C30.0286 13.8226 29.9343 14.341 29.8191 14.8699C28.7927 14.6185 27.6721 14.4248 26.4939 14.2991C25.787 13.3304 25.0539 12.4506 24.3155 11.6809C26.0226 10.0942 27.625 9.22493 28.7142 9.22493V8.05719C27.2741 8.05719 25.389 9.08355 23.4829 10.864C21.5768 9.09402 19.6917 8.07814 18.2516 8.07814V9.24588C19.3356 9.24588 20.9432 10.1099 22.6503 11.6861C21.9172 12.4559 21.1841 13.3304 20.4876 14.2991C19.3042 14.4248 18.1835 14.6185 17.1572 14.8751C17.0367 14.3515 16.9477 13.8435 16.8849 13.3565C16.6388 11.3562 16.9425 9.80095 17.6494 9.38727C17.8065 9.29301 18.0107 9.25112 18.2516 9.25112V8.08337C17.8118 8.08337 17.4138 8.17763 17.0682 8.37662C15.5967 9.22493 15.2668 11.8694 16.0261 15.1893C12.769 16.1947 10.6482 17.8024 10.6482 19.499C10.6482 21.2009 12.7795 22.8137 16.047 23.8139C15.293 27.1443 15.6281 29.794 17.1048 30.6423C17.4452 30.8413 17.8432 30.9355 18.283 30.9355C19.7231 30.9355 21.6082 29.9092 23.5143 28.1288C25.4204 29.8987 27.3056 30.9146 28.7456 30.9146C29.1855 30.9146 29.5835 30.8203 29.9291 30.6214C31.4005 29.773 31.7304 27.1286 30.9711 23.8086C34.2178 22.8085 36.3386 21.1956 36.3386 19.499ZM29.5206 16.0062C29.3269 16.6817 29.086 17.3782 28.8137 18.0747C28.599 17.6557 28.3738 17.2368 28.1277 16.8179C27.8868 16.399 27.6302 15.9905 27.3736 15.5925C28.1172 15.7025 28.8346 15.8387 29.5206 16.0062ZM27.1223 21.5831C26.7138 22.2901 26.2949 22.9603 25.8603 23.5835C25.08 23.6515 24.2893 23.6882 23.4934 23.6882C22.7027 23.6882 21.9119 23.6515 21.1369 23.5887C20.7023 22.9656 20.2782 22.3005 19.8697 21.5988C19.4717 20.9128 19.1104 20.2164 18.7805 19.5147C19.1052 18.813 19.4717 18.1113 19.8645 17.4253C20.2729 16.7184 20.6918 16.0481 21.1265 15.425C21.9067 15.3569 22.6974 15.3202 23.4934 15.3202C24.2841 15.3202 25.0748 15.3569 25.8498 15.4197C26.2844 16.0429 26.7086 16.7079 27.1171 17.4096C27.515 18.0956 27.8763 18.7921 28.2062 19.4937C27.8763 20.1954 27.515 20.8971 27.1223 21.5831ZM28.8137 20.9024C29.0965 21.6041 29.3373 22.3058 29.5363 22.9865C28.8503 23.1541 28.1277 23.2955 27.3789 23.4054C27.6355 23.0022 27.8921 22.5885 28.1329 22.1644C28.3738 21.7455 28.599 21.3213 28.8137 20.9024ZM23.5039 26.4897C23.0169 25.987 22.5299 25.4267 22.0481 24.8141C22.5194 24.835 23.0011 24.8507 23.4881 24.8507C23.9804 24.8507 24.4674 24.8402 24.9439 24.8141C24.4726 25.4267 23.9856 25.987 23.5039 26.4897ZM19.6079 23.4054C18.8643 23.2955 18.1469 23.1593 17.4609 22.9917C17.6547 22.3162 17.8955 21.6198 18.1678 20.9233C18.3825 21.3422 18.6077 21.7612 18.8538 22.1801C19.0999 22.599 19.3513 23.0075 19.6079 23.4054ZM23.4777 12.5082C23.9647 13.0109 24.4517 13.5712 24.9334 14.1839C24.4621 14.163 23.9804 14.1473 23.4934 14.1473C23.0011 14.1473 22.5141 14.1577 22.0376 14.1839C22.5089 13.5712 22.9959 13.0109 23.4777 12.5082ZM19.6026 15.5925C19.3461 15.9958 19.0895 16.4094 18.8486 16.8336C18.6077 17.2525 18.3825 17.6714 18.1678 18.0904C17.8851 17.3887 17.6442 16.687 17.4452 16.0062C18.1312 15.8439 18.8538 15.7025 19.6026 15.5925ZM14.8636 22.1487C13.0099 21.358 11.8107 20.3211 11.8107 19.499C11.8107 18.6769 13.0099 17.6348 14.8636 16.8493C15.3139 16.6556 15.8062 16.4828 16.3141 16.3204C16.6126 17.3468 17.0053 18.415 17.4923 19.5095C17.0106 20.5987 16.6231 21.6617 16.3298 22.6828C15.8114 22.5205 15.3192 22.3424 14.8636 22.1487ZM17.6808 29.6317C16.9687 29.2232 16.6597 27.668 16.9006 25.6676C16.9582 25.1754 17.0525 24.657 17.1677 24.1281C18.194 24.3794 19.3146 24.5732 20.4929 24.6988C21.1998 25.6676 21.9329 26.5473 22.6712 27.3171C20.9641 28.9038 19.3618 29.773 18.2726 29.773C18.0369 29.7678 17.8379 29.7207 17.6808 29.6317ZM30.1019 25.6414C30.348 27.6418 30.0443 29.197 29.3373 29.6107C29.1802 29.705 28.976 29.7469 28.7351 29.7469C27.6512 29.7469 26.0436 28.8828 24.3365 27.3066C25.0696 26.5369 25.8027 25.6624 26.4991 24.6936C27.6826 24.5679 28.8032 24.3742 29.8296 24.1176C29.95 24.6465 30.0443 25.1544 30.1019 25.6414ZM32.1179 22.1487C31.6676 22.3424 31.1754 22.5152 30.6674 22.6776C30.3689 21.6512 29.9762 20.5829 29.4892 19.4885C29.971 18.3993 30.3585 17.3363 30.6517 16.3152C31.1701 16.4775 31.6623 16.6556 32.1232 16.8493C33.9769 17.64 35.1761 18.6769 35.1761 19.499C35.1708 20.3211 33.9717 21.3632 32.1179 22.1487Z" fill="#1348B0"/>
<path d="M23.4883 21.8921C24.81 21.8921 25.8814 20.8207 25.8814 19.499C25.8814 18.1773 24.81 17.1059 23.4883 17.1059C22.1666 17.1059 21.0952 18.1773 21.0952 19.499C21.0952 20.8207 22.1666 21.8921 23.4883 21.8921Z" fill="#1348B0"/>
</g>
<defs>
<filter id="filter0_d_6_49" x="0" y="0" width="47" height="47" filterUnits="userSpaceOnUse" color-interpolation-filters="sRGB">
<feFlood flood-opacity="0" result="BackgroundImageFix"/>
<feColorMatrix in="SourceAlpha" type="matrix" values="0 0 0 0 0 0 0 0 0 0 0 0 0 0 0 0 0 0 127 0" result="hardAlpha"/>
<feOffset dy="4"/>
<feGaussianBlur stdDeviation="2"/>
<feComposite in2="hardAlpha" operator="out"/>
<feColorMatrix type="matrix" values="0 0 0 0 0 0 0 0 0 0 0 0 0 0 0 0 0 0 0.25 0"/>
<feBlend mode="normal" in2="BackgroundImageFix" result="effect1_dropShadow_6_49"/>
<feBlend mode="normal" in="SourceGraphic" in2="effect1_dropShadow_6_49" result="shape"/>
</filter>
</defs>
</svg>
