<svg width="39" height="39" viewBox="0 0 39 39" fill="none" xmlns="http://www.w3.org/2000/svg">
<path d="M19.5 38C29.7173 38 38 29.7173 38 19.5C38 9.28273 29.7173 1 19.5 1C9.28273 1 1 9.28273 1 19.5C1 29.7173 9.28273 38 19.5 38Z" fill="white" stroke="#EBA900" stroke-width="2"/>
<path d="M19.5 38C29.7173 38 38 29.7173 38 19.5C38 9.28273 29.7173 1 19.5 1C9.28273 1 1 9.28273 1 19.5C1 29.7173 9.28273 38 19.5 38Z" fill="white" stroke="#91003D" stroke-width="2"/>
<path d="M10.8102 24.14C10.1195 24.14 9.51287 24.0187 8.9902 23.776C8.47687 23.5333 8.07554 23.1833 7.7862 22.726C7.5062 22.2687 7.3662 21.732 7.3662 21.116H9.0882C9.0882 21.5733 9.2422 21.9373 9.5502 22.208C9.86754 22.4787 10.2875 22.614 10.8102 22.614C11.3142 22.614 11.7109 22.4787 12.0002 22.208C12.2989 21.9373 12.4482 21.5827 12.4482 21.144C12.4482 20.808 12.3549 20.5093 12.1682 20.248C11.9815 19.9867 11.7062 19.814 11.3422 19.73L9.9702 19.38C9.23287 19.1933 8.64954 18.8433 8.2202 18.33C7.79087 17.8167 7.5762 17.2053 7.5762 16.496C7.5762 15.9173 7.7022 15.4133 7.9542 14.984C8.21554 14.5547 8.57954 14.2233 9.0462 13.99C9.5222 13.7567 10.0775 13.64 10.7122 13.64C11.3562 13.64 11.9162 13.7567 12.3922 13.99C12.8682 14.2233 13.2369 14.5547 13.4982 14.984C13.7689 15.404 13.9042 15.8987 13.9042 16.468H12.1962C12.1962 16.0667 12.0609 15.7493 11.7902 15.516C11.5195 15.2733 11.1602 15.152 10.7122 15.152C10.2735 15.152 9.92354 15.2733 9.6622 15.516C9.4102 15.7493 9.2842 16.0573 9.2842 16.44C9.2842 16.7573 9.37287 17.0187 9.5502 17.224C9.73687 17.4293 9.99354 17.5787 10.3202 17.672L11.7342 18.022C12.4902 18.2087 13.0829 18.582 13.5122 19.142C13.9509 19.702 14.1702 20.3693 14.1702 21.144C14.1702 21.7507 14.0302 22.278 13.7502 22.726C13.4795 23.174 13.0922 23.524 12.5882 23.776C12.0842 24.0187 11.4915 24.14 10.8102 24.14ZM21.5287 26.52L19.9887 23.986L20.2967 24.126C20.2594 24.126 20.2127 24.126 20.1567 24.126C20.1101 24.1353 20.0587 24.14 20.0027 24.14C19.3494 24.14 18.7801 24.014 18.2947 23.762C17.8094 23.51 17.4314 23.1553 17.1607 22.698C16.8901 22.2313 16.7547 21.6947 16.7547 21.088V16.692C16.7547 16.0667 16.8901 15.53 17.1607 15.082C17.4314 14.6247 17.8094 14.27 18.2947 14.018C18.7801 13.766 19.3494 13.64 20.0027 13.64C20.6561 13.64 21.2254 13.766 21.7107 14.018C22.1961 14.27 22.5741 14.6247 22.8447 15.082C23.1154 15.5393 23.2507 16.076 23.2507 16.692V21.088C23.2507 21.704 23.1154 22.2453 22.8447 22.712C22.5834 23.1693 22.2101 23.5193 21.7247 23.762L23.4187 26.52H21.5287ZM20.0027 22.6C20.4881 22.6 20.8567 22.4693 21.1087 22.208C21.3701 21.9373 21.5007 21.564 21.5007 21.088V16.692C21.5007 16.2067 21.3654 15.8333 21.0947 15.572C20.8334 15.3013 20.4694 15.166 20.0027 15.166C19.5361 15.166 19.1674 15.3013 18.8967 15.572C18.6354 15.8333 18.5047 16.2067 18.5047 16.692V21.088C18.5047 21.564 18.6354 21.9373 18.8967 22.208C19.1581 22.4693 19.5267 22.6 20.0027 22.6ZM26.7313 24V13.78H28.4813V22.418H32.8213V24H26.7313Z" fill="#91003D"/>
</svg>
