<svg width="48" height="47" viewBox="0 0 48 47" fill="none" xmlns="http://www.w3.org/2000/svg">
<g filter="url(#filter0_d_104_28)">
<path d="M24.0029 38C34.2202 38 42.5029 29.7173 42.5029 19.5C42.5029 9.28273 34.2202 1 24.0029 1C13.7857 1 5.50293 9.28273 5.50293 19.5C5.50293 29.7173 13.7857 38 24.0029 38Z" fill="white" stroke="#1395BE" stroke-width="2"/>
<path d="M17.2822 14.6496C19.6538 11.7351 20.9693 10.1189 23.3409 10.1189C27.6396 10.1189 28.753 13.4988 31.7156 15.7189C32.8954 16.6029 36.2564 17.5644 37.4422 14.6496C36.2564 18.6573 33.8848 20.4789 31.5129 20.4789C29.7707 20.4789 27.5069 18.6501 25.4353 16.289C22.8819 13.3793 18.4684 13.1924 17.2822 14.6496Z" fill="#31C4F3"/>
<path d="M10.2822 22.4897C12.6538 19.5751 13.9693 17.9589 16.3409 17.9589C20.6396 17.9589 21.8503 21.2112 24.7156 23.5591C25.9428 24.5646 29.2561 25.4043 30.4422 22.4897C29.2564 26.4975 26.8845 28.3189 24.5129 28.3189C22.7707 28.3192 20.5544 26.6118 18.435 24.1292C15.9213 21.1843 11.468 21.0324 10.2822 22.4897Z" fill="#31C4F3"/>
<path d="M31.49 20.7589C29.3915 20.7589 26.9086 18.4441 25.195 16.5023C23.6021 14.6971 21.3573 14.0752 19.7951 14.1143C18.7909 14.1332 17.969 14.416 17.5962 14.8708L17.5959 14.8712C17.478 15.0153 17.267 15.0355 17.1243 14.9171C16.9816 14.7986 16.9608 14.5864 17.0787 14.4427C17.0791 14.4416 17.0797 14.441 17.0804 14.4403C19.4287 11.5709 20.8468 9.83887 23.3629 9.83887C26.4303 9.83887 27.9372 11.4696 29.5326 13.1966C30.2456 13.9682 30.9832 14.7662 31.8912 15.4431C32.5688 15.9476 34.0925 16.4999 35.3602 16.1436C36.152 15.9219 36.7298 15.378 37.0775 14.5284C37.1455 14.3624 37.3317 14.2793 37.4992 14.3387C37.6673 14.3991 37.7591 14.5813 37.7082 14.7534C36.5888 18.514 34.2643 20.7589 31.49 20.7589ZM19.9003 13.4385C21.6085 13.4385 23.9909 14.1221 25.6958 16.0542C27.9888 18.653 30.0467 20.084 31.49 20.084C33.4631 20.084 35.1938 18.7576 36.3332 16.451C36.0901 16.5988 35.8251 16.7138 35.5398 16.7938C33.9705 17.2338 32.2248 16.5313 31.4926 15.9854C30.5347 15.2717 29.7761 14.4501 29.0422 13.6561C27.4844 11.9697 26.1389 10.5137 23.3629 10.5137C21.5301 10.5137 20.3451 11.5874 18.6724 13.5691C19.012 13.4915 19.3851 13.4473 19.7827 13.4398C19.8216 13.4388 19.8608 13.4385 19.9003 13.4385Z" fill="#1F212B"/>
<path d="M24.4903 28.5989C22.7878 28.5989 20.5511 27.0863 18.1925 24.3391C16.6524 22.545 14.4271 21.9235 12.8692 21.9441C11.8293 21.9563 10.9795 22.2431 10.596 22.7107L10.5957 22.7111C10.4778 22.8555 10.2674 22.8754 10.1241 22.7569C9.98139 22.6382 9.96096 22.4259 10.0789 22.2822C10.0792 22.2815 10.0799 22.2809 10.0802 22.2802C12.4285 19.4108 13.8466 17.6789 16.3627 17.6789C19.5423 17.6789 21.1024 19.3774 22.7547 21.1755C23.4125 21.8918 24.0931 22.6321 24.9023 23.2914C25.6335 23.8873 27.0583 24.3549 28.2571 24.0455C29.0978 23.8292 29.71 23.2651 30.0775 22.3676C30.1458 22.2012 30.3317 22.1179 30.4992 22.1779C30.6673 22.2383 30.7591 22.4205 30.7082 22.5926C29.5895 26.3541 27.265 28.5989 24.4903 28.5989ZM12.9362 21.2686C14.6458 21.2686 17.0336 21.9569 18.6996 23.8974C20.9289 26.4938 22.9858 27.9241 24.4907 27.9241C26.4548 27.9241 28.1787 26.6099 29.3185 24.3222C29.0465 24.4899 28.7474 24.6168 28.4239 24.6998C26.9977 25.0672 25.3612 24.5331 24.482 23.8164C23.6352 23.1267 22.9382 22.3679 22.264 21.634C20.6469 19.8738 19.2502 18.3537 16.3637 18.3537C14.5326 18.3537 13.3479 19.4253 11.6775 21.4032C12.0379 21.3199 12.4365 21.274 12.8622 21.2693C12.8863 21.269 12.9114 21.2686 12.9362 21.2686Z" fill="#1F212B"/>
<path d="M26.9875 25.7989C25.6042 25.7989 24.183 24.9524 23.5035 24.3946C22.7716 23.7942 22.0991 23.041 21.4484 22.313C19.9909 20.6807 18.6144 19.1392 16.6099 19.1392C16.5173 19.1392 16.4421 19.063 16.4421 18.9691C16.4421 18.8751 16.5173 18.7989 16.6099 18.7989C18.763 18.7989 20.2547 20.469 21.697 22.0843C22.339 22.8031 23.0028 23.5464 23.7142 24.1301C24.435 24.7213 26.0314 25.6597 27.4469 25.4214C27.5378 25.4048 27.6244 25.4691 27.6399 25.5613C27.655 25.6539 27.5932 25.7417 27.5016 25.757C27.3321 25.7856 27.16 25.7989 26.9875 25.7989Z" fill="black"/>
<path d="M13.8076 20.1989C13.7541 20.1989 13.7019 20.1706 13.6698 20.118C13.6193 20.0348 13.6397 19.922 13.7158 19.8664C14.5462 19.2581 15.1236 18.9264 15.9749 18.8012C16.0651 18.7849 16.1484 18.8574 16.1606 18.9569C16.1728 19.0563 16.1094 19.1474 16.0188 19.1609C15.232 19.2766 14.6877 19.5913 13.8992 20.1684C13.8711 20.1891 13.8394 20.1989 13.8076 20.1989Z" fill="black"/>
<path d="M34.2675 17.9589C32.8843 17.9589 31.4631 17.1124 30.7835 16.5546C30.0516 15.9542 29.3791 15.201 28.7284 14.473C27.271 12.8407 25.8944 11.2992 23.89 11.2992C23.7973 11.2992 23.7222 11.223 23.7222 11.129C23.7222 11.0351 23.7973 10.9589 23.89 10.9589C26.0431 10.9589 27.5347 12.629 28.9771 14.2443C29.619 14.9631 30.2828 15.7064 30.9942 16.2901C31.7151 16.8813 33.3121 17.8173 34.7269 17.5814C34.8186 17.5634 34.9048 17.6291 34.9199 17.7213C34.935 17.8139 34.8733 17.9017 34.7816 17.917C34.6122 17.9456 34.44 17.9589 34.2675 17.9589Z" fill="black"/>
<path d="M20.8257 12.3589C20.7663 12.3589 20.7084 12.3355 20.6728 12.292C20.6168 12.2233 20.6395 12.1299 20.7238 12.084C21.5448 11.636 22.1419 11.369 22.9439 11.2411C23.0439 11.2273 23.1396 11.2786 23.1587 11.36C23.1781 11.4413 23.1128 11.5202 23.0135 11.5361C22.2724 11.654 21.7083 11.9073 20.9269 12.3337C20.8961 12.3508 20.8609 12.3589 20.8257 12.3589Z" fill="black"/>
</g>
<defs>
<filter id="filter0_d_104_28" x="0.50293" y="0" width="47" height="47" filterUnits="userSpaceOnUse" color-interpolation-filters="sRGB">
<feFlood flood-opacity="0" result="BackgroundImageFix"/>
<feColorMatrix in="SourceAlpha" type="matrix" values="0 0 0 0 0 0 0 0 0 0 0 0 0 0 0 0 0 0 127 0" result="hardAlpha"/>
<feOffset dy="4"/>
<feGaussianBlur stdDeviation="2"/>
<feComposite in2="hardAlpha" operator="out"/>
<feColorMatrix type="matrix" values="0 0 0 0 0 0 0 0 0 0 0 0 0 0 0 0 0 0 0.25 0"/>
<feBlend mode="normal" in2="BackgroundImageFix" result="effect1_dropShadow_104_28"/>
<feBlend mode="normal" in="SourceGraphic" in2="effect1_dropShadow_104_28" result="shape"/>
</filter>
</defs>
</svg>
