<svg width="49" height="37" viewBox="0 0 49 37" fill="none" xmlns="http://www.w3.org/2000/svg">
<circle cx="23.5" cy="18.5" r="18" fill="#E8F0FF" stroke="#04BA6E"/>
<path d="M13.9098 22.1C13.1964 22.1 12.6364 21.9067 12.2298 21.52C11.8298 21.1267 11.6298 20.5933 11.6298 19.92V14.7H12.8898V19.91C12.8898 20.2567 12.9764 20.5267 13.1498 20.72C13.3231 20.9133 13.5764 21.01 13.9098 21.01C14.2364 21.01 14.4864 20.9133 14.6598 20.72C14.8398 20.5267 14.9298 20.2567 14.9298 19.91V14.7H16.1898V19.92C16.1898 20.5933 15.9898 21.1267 15.5898 21.52C15.1898 21.9067 14.6298 22.1 13.9098 22.1ZM17.1059 22V20.87H18.5759V15.83H17.1059V14.7H21.3059V15.83H19.8359V20.87H21.3059V22H17.1059ZM22.102 23.1L25.602 13.7H26.902L23.402 23.1H22.102ZM29.798 22.1C29.0847 22.1 28.5247 21.9067 28.118 21.52C27.718 21.1267 27.518 20.5933 27.518 19.92V14.7H28.778V19.91C28.778 20.2567 28.8647 20.5267 29.038 20.72C29.2114 20.9133 29.4647 21.01 29.798 21.01C30.1247 21.01 30.3747 20.9133 30.548 20.72C30.728 20.5267 30.818 20.2567 30.818 19.91V14.7H32.078V19.92C32.078 20.5933 31.878 21.1267 31.478 21.52C31.078 21.9067 30.518 22.1 29.798 22.1ZM32.3741 22L34.3941 18.26L32.4941 14.7H33.8941L34.8141 16.53C34.8808 16.6633 34.9408 16.7933 34.9941 16.92C35.0475 17.04 35.0875 17.1333 35.1141 17.2C35.1341 17.1333 35.1708 17.04 35.2241 16.92C35.2775 16.7933 35.3375 16.6633 35.4041 16.53L36.3341 14.7H37.6941L35.7941 18.23L37.8141 22H36.4141L35.3841 19.98C35.3175 19.8467 35.2541 19.7167 35.1941 19.59C35.1408 19.4633 35.1008 19.3633 35.0741 19.29C35.0475 19.3633 35.0075 19.4633 34.9541 19.59C34.9008 19.7167 34.8408 19.8467 34.7741 19.98L33.7341 22H32.3741Z" fill="#00BC84"/>
</svg>
