<svg width="53" height="47" viewBox="0 0 53 47" fill="none" xmlns="http://www.w3.org/2000/svg">
<g filter="url(#filter0_d_116_91)">
<circle cx="26.5" cy="19.5" r="18.5" fill="#E9EEFF" stroke="#009B7F" stroke-width="2"/>
</g>
<path d="M15.9098 23.1C15.2098 23.1 14.6598 22.9067 14.2598 22.52C13.8598 22.1267 13.6598 21.5933 13.6598 20.92V17.5H14.9098V20.91C14.9098 21.2567 14.9964 21.5267 15.1698 21.72C15.3431 21.9133 15.5898 22.01 15.9098 22.01C16.2231 22.01 16.4664 21.9133 16.6398 21.72C16.8198 21.5267 16.9098 21.2567 16.9098 20.91V17.5H18.1598V20.92C18.1598 21.5933 17.9564 22.1267 17.5498 22.52C17.1431 22.9067 16.5964 23.1 15.9098 23.1ZM18.9659 23V21.87H20.8459V18.63H19.1659V17.5H22.0959V21.87H23.7859V23H18.9659ZM21.3859 16.58C21.1325 16.58 20.9325 16.5167 20.7859 16.39C20.6392 16.2567 20.5659 16.08 20.5659 15.86C20.5659 15.64 20.6392 15.4667 20.7859 15.34C20.9325 15.2067 21.1325 15.14 21.3859 15.14C21.6392 15.14 21.8392 15.2067 21.9859 15.34C22.1325 15.4667 22.2059 15.64 22.2059 15.86C22.2059 16.08 22.1325 16.2567 21.9859 16.39C21.8392 16.5167 21.6392 16.58 21.3859 16.58ZM24.102 24.1L27.602 14.7H28.902L25.402 24.1H24.102ZM31.798 23.1C31.098 23.1 30.548 22.9067 30.148 22.52C29.748 22.1267 29.548 21.5933 29.548 20.92V17.5H30.798V20.91C30.798 21.2567 30.8847 21.5267 31.058 21.72C31.2314 21.9133 31.478 22.01 31.798 22.01C32.1114 22.01 32.3547 21.9133 32.528 21.72C32.708 21.5267 32.798 21.2567 32.798 20.91V17.5H34.048V20.92C34.048 21.5933 33.8447 22.1267 33.438 22.52C33.0314 22.9067 32.4847 23.1 31.798 23.1ZM34.4541 23L36.3741 20.16L34.5841 17.5H35.9941L36.8441 18.85C36.8975 18.93 36.9441 19.02 36.9841 19.12C37.0308 19.22 37.0675 19.3 37.0941 19.36C37.1208 19.3 37.1575 19.22 37.2041 19.12C37.2508 19.02 37.2975 18.93 37.3441 18.85L38.1941 17.5H39.6141L37.8241 20.16L39.7341 23H38.3141L37.3641 21.49C37.3108 21.4033 37.2608 21.31 37.2141 21.21C37.1675 21.11 37.1275 21.03 37.0941 20.97C37.0675 21.03 37.0308 21.11 36.9841 21.21C36.9375 21.31 36.8875 21.4033 36.8341 21.49L35.8741 23H34.4541Z" fill="#009B7F"/>
<defs>
<filter id="filter0_d_116_91" x="3" y="0" width="47" height="47" filterUnits="userSpaceOnUse" color-interpolation-filters="sRGB">
<feFlood flood-opacity="0" result="BackgroundImageFix"/>
<feColorMatrix in="SourceAlpha" type="matrix" values="0 0 0 0 0 0 0 0 0 0 0 0 0 0 0 0 0 0 127 0" result="hardAlpha"/>
<feOffset dy="4"/>
<feGaussianBlur stdDeviation="2"/>
<feComposite in2="hardAlpha" operator="out"/>
<feColorMatrix type="matrix" values="0 0 0 0 0 0 0 0 0 0 0 0 0 0 0 0 0 0 0.25 0"/>
<feBlend mode="normal" in2="BackgroundImageFix" result="effect1_dropShadow_116_91"/>
<feBlend mode="normal" in="SourceGraphic" in2="effect1_dropShadow_116_91" result="shape"/>
</filter>
</defs>
</svg>
