<svg width="39" height="39" viewBox="0 0 39 39" fill="none" xmlns="http://www.w3.org/2000/svg">
<circle cx="19.5" cy="19.5" r="18.5" fill="#F2F2F2" stroke="#009B7F" stroke-width="2"/>
<path d="M9.40977 23.1C8.70977 23.1 8.15977 22.9067 7.75977 22.52C7.35977 22.1267 7.15977 21.5933 7.15977 20.92V17.5H8.40977V20.91C8.40977 21.2567 8.49643 21.5267 8.66977 21.72C8.8431 21.9133 9.08977 22.01 9.40977 22.01C9.7231 22.01 9.96643 21.9133 10.1398 21.72C10.3198 21.5267 10.4098 21.2567 10.4098 20.91V17.5H11.6598V20.92C11.6598 21.5933 11.4564 22.1267 11.0498 22.52C10.6431 22.9067 10.0964 23.1 9.40977 23.1ZM12.4659 23V21.87H14.3459V18.63H12.6659V17.5H15.5959V21.87H17.2859V23H12.4659ZM14.8859 16.58C14.6325 16.58 14.4325 16.5167 14.2859 16.39C14.1392 16.2567 14.0659 16.08 14.0659 15.86C14.0659 15.64 14.1392 15.4667 14.2859 15.34C14.4325 15.2067 14.6325 15.14 14.8859 15.14C15.1392 15.14 15.3392 15.2067 15.4859 15.34C15.6325 15.4667 15.7059 15.64 15.7059 15.86C15.7059 16.08 15.6325 16.2567 15.4859 16.39C15.3392 16.5167 15.1392 16.58 14.8859 16.58ZM17.602 24.1L21.102 14.7H22.402L18.902 24.1H17.602ZM25.298 23.1C24.598 23.1 24.048 22.9067 23.648 22.52C23.248 22.1267 23.048 21.5933 23.048 20.92V17.5H24.298V20.91C24.298 21.2567 24.3847 21.5267 24.558 21.72C24.7314 21.9133 24.978 22.01 25.298 22.01C25.6114 22.01 25.8547 21.9133 26.028 21.72C26.208 21.5267 26.298 21.2567 26.298 20.91V17.5H27.548V20.92C27.548 21.5933 27.3447 22.1267 26.938 22.52C26.5314 22.9067 25.9847 23.1 25.298 23.1ZM27.9541 23L29.8741 20.16L28.0841 17.5H29.4941L30.3441 18.85C30.3975 18.93 30.4441 19.02 30.4841 19.12C30.5308 19.22 30.5675 19.3 30.5941 19.36C30.6208 19.3 30.6575 19.22 30.7041 19.12C30.7508 19.02 30.7975 18.93 30.8441 18.85L31.6941 17.5H33.1141L31.3241 20.16L33.2341 23H31.8141L30.8641 21.49C30.8108 21.4033 30.7608 21.31 30.7141 21.21C30.6675 21.11 30.6275 21.03 30.5941 20.97C30.5675 21.03 30.5308 21.11 30.4841 21.21C30.4375 21.31 30.3875 21.4033 30.3341 21.49L29.3741 23H27.9541Z" fill="#009B7F"/>
</svg>
