<svg width="143" height="143" viewBox="0 0 143 143" fill="none" xmlns="http://www.w3.org/2000/svg">
<g filter="url(#filter0_d_6_54)">
<path d="M71.5 132.5C107.399 132.5 136.5 103.399 136.5 67.5C136.5 31.6015 107.399 2.5 71.5 2.5C35.6015 2.5 6.5 31.6015 6.5 67.5C6.5 103.399 35.6015 132.5 71.5 132.5Z" fill="#FFEDF2" stroke="#6A0000" stroke-width="5"/>
<path d="M115.725 68.7235C115.09 68.0881 106.933 57.8169 105.556 56.1227C104.073 54.4285 103.438 54.7462 102.484 54.8521C101.531 54.958 91.2561 56.7581 90.0909 56.8639C88.9258 57.0757 88.1843 57.4993 88.9258 58.5582C89.5613 59.5112 96.3406 69.0411 97.8236 71.2648L70.8124 77.724L49.4153 41.8278C48.5679 40.5571 48.356 40.1336 46.4493 40.2395C44.5427 40.3453 29.607 41.616 28.5478 41.616C27.4885 41.7219 26.3233 42.1454 27.3826 44.6868C28.4419 47.2281 45.3901 83.6537 45.8138 84.7126C46.2375 85.7715 47.5086 87.4657 50.3686 86.8304C53.3345 86.0892 63.5035 83.442 69.1175 81.9595C72.0835 87.254 78.0154 98.0546 79.1805 99.6429C80.6635 101.761 81.7228 101.337 83.9472 100.702C85.748 100.172 111.7 90.8542 112.865 90.3247C114.03 89.7953 114.772 89.4776 113.924 88.3128C113.289 87.4657 106.51 78.2534 102.908 73.4884C105.344 72.8531 114.136 70.5236 115.09 70.2059C116.149 69.8882 116.361 69.3588 115.725 68.7235ZM66.6812 78.7829C66.3635 78.8888 51.216 82.489 50.4745 82.7007C49.6271 82.9125 49.6271 82.8066 49.6271 82.489C49.4153 82.1713 31.6196 45.3221 31.3019 44.8986C31.09 44.475 31.09 44.0514 31.3019 44.0514C31.5137 44.0514 45.6019 42.7808 46.0256 42.7808C46.5553 42.7808 46.4493 42.8867 46.6612 43.2043C46.6612 43.2043 66.4694 77.4063 66.7872 77.9358C67.2109 78.4652 66.999 78.677 66.6812 78.7829ZM109.264 86.7245C109.475 87.1481 109.793 87.3598 108.946 87.5716C108.204 87.8893 83.4176 96.2545 82.888 96.4662C82.3583 96.678 82.0406 96.7839 81.405 95.8309C80.7694 94.8779 72.719 81.0065 72.719 81.0065L99.0947 74.1238C99.7302 73.912 99.9421 73.8061 100.366 74.4414C100.789 75.1827 109.052 86.4068 109.264 86.7245ZM110.958 68.0881C110.323 68.194 100.684 70.6295 100.684 70.6295L92.7391 59.8288C92.5272 59.5112 92.3154 59.1935 92.845 59.0876C93.3747 58.9817 102.378 57.3934 102.802 57.2875C103.226 57.1816 103.544 57.0757 104.073 57.8169C104.603 58.4523 111.382 67.1351 111.7 67.4528C112.018 67.7705 111.594 67.9822 110.958 68.0881Z" fill="#FB503B"/>
</g>
<defs>
<filter id="filter0_d_6_54" x="0" y="0" width="143" height="143" filterUnits="userSpaceOnUse" color-interpolation-filters="sRGB">
<feFlood flood-opacity="0" result="BackgroundImageFix"/>
<feColorMatrix in="SourceAlpha" type="matrix" values="0 0 0 0 0 0 0 0 0 0 0 0 0 0 0 0 0 0 127 0" result="hardAlpha"/>
<feOffset dy="4"/>
<feGaussianBlur stdDeviation="2"/>
<feComposite in2="hardAlpha" operator="out"/>
<feColorMatrix type="matrix" values="0 0 0 0 0 0 0 0 0 0 0 0 0 0 0 0 0 0 0.25 0"/>
<feBlend mode="normal" in2="BackgroundImageFix" result="effect1_dropShadow_6_54"/>
<feBlend mode="normal" in="SourceGraphic" in2="effect1_dropShadow_6_54" result="shape"/>
</filter>
</defs>
</svg>
