<svg width="2658" height="2658" viewBox="0 0 2658 2658" fill="none" xmlns="http://www.w3.org/2000/svg">
<circle cx="1329" cy="1329" r="1329" fill="#101E50"/>
<path d="M2304 1328.92C2304 1199.68 2142.15 1077.19 1894 1001.24C1951.26 748.315 1925.81 547.091 1813.67 482.668C1787.82 467.556 1757.59 460.398 1724.59 460.398V549.079C1742.88 549.079 1757.59 552.659 1769.92 559.419C1824 590.438 1847.47 708.548 1829.17 860.46C1824.8 897.842 1817.64 937.212 1808.89 977.377C1730.95 958.288 1645.85 943.574 1556.37 934.03C1502.68 860.46 1447.01 793.65 1390.94 735.192C1520.58 614.696 1642.27 548.682 1724.98 548.682V460C1615.62 460 1472.46 537.945 1327.7 673.155C1182.95 538.74 1039.79 461.591 930.426 461.591V550.273C1012.75 550.273 1134.83 615.889 1264.47 735.59C1208.8 794.048 1153.12 860.46 1100.23 934.03C1010.36 943.574 925.256 958.288 847.312 977.775C838.165 938.007 831.405 899.432 826.632 862.448C807.942 710.536 831.007 592.426 884.693 561.01C896.624 553.852 912.133 550.67 930.426 550.67V461.988C897.021 461.988 866.798 469.147 840.551 484.258C728.804 548.682 703.751 749.508 761.414 1001.64C514.059 1077.99 353 1200.08 353 1328.92C353 1458.17 514.854 1580.65 763.004 1656.61C705.739 1909.53 731.19 2110.75 843.335 2175.18C869.184 2190.29 899.407 2197.45 932.812 2197.45C1042.17 2197.45 1185.34 2119.5 1330.09 1984.29C1474.84 2118.71 1618.01 2195.86 1727.37 2195.86C1760.77 2195.86 1791 2188.7 1817.24 2173.59C1928.99 2109.16 1954.04 1908.34 1896.38 1656.21C2142.94 1580.25 2304 1457.77 2304 1328.92ZM1786.23 1063.67C1771.51 1114.97 1753.22 1167.86 1732.54 1220.75C1716.23 1188.94 1699.13 1157.13 1680.44 1125.31C1662.15 1093.5 1642.66 1062.48 1623.18 1032.26C1679.65 1040.61 1734.13 1050.95 1786.23 1063.67ZM1604.09 1487.2C1573.07 1540.88 1541.26 1591.79 1508.25 1639.11C1449 1644.28 1388.95 1647.06 1328.5 1647.06C1268.45 1647.06 1208.4 1644.28 1149.55 1639.51C1116.54 1592.18 1084.33 1541.68 1053.31 1488.39C1023.08 1436.3 995.645 1383.4 970.591 1330.12C995.247 1276.83 1023.08 1223.54 1052.91 1171.44C1083.93 1117.76 1115.74 1066.85 1148.75 1019.53C1208 1014.36 1268.05 1011.58 1328.5 1011.58C1388.55 1011.58 1448.6 1014.36 1507.45 1019.13C1540.46 1066.46 1572.67 1116.96 1603.69 1170.25C1633.92 1222.35 1661.36 1275.24 1686.41 1328.53C1661.36 1381.81 1633.92 1435.1 1604.09 1487.2ZM1732.54 1435.5C1754.01 1488.79 1772.31 1542.08 1787.42 1593.78C1735.32 1606.5 1680.44 1617.24 1623.58 1625.59C1643.06 1594.97 1662.55 1563.55 1680.84 1531.34C1699.13 1499.53 1716.23 1467.31 1732.54 1435.5ZM1329.3 1859.82C1292.31 1821.64 1255.33 1779.09 1218.74 1732.56C1254.53 1734.15 1291.12 1735.35 1328.1 1735.35C1365.48 1735.35 1402.47 1734.55 1438.66 1732.56C1402.87 1779.09 1365.88 1821.64 1329.3 1859.82ZM1033.42 1625.59C976.954 1617.24 922.472 1606.9 870.377 1594.17C885.091 1542.87 903.384 1489.98 924.063 1437.09C940.368 1468.9 957.468 1500.72 976.159 1532.53C994.85 1564.35 1013.94 1595.37 1033.42 1625.59ZM1327.31 798.025C1364.29 836.202 1401.27 878.753 1437.86 925.281C1402.07 923.691 1365.48 922.498 1328.5 922.498C1291.12 922.498 1254.13 923.293 1217.95 925.281C1253.74 878.753 1290.72 836.202 1327.31 798.025ZM1033.03 1032.26C1013.54 1062.88 994.054 1094.29 975.761 1126.51C957.468 1158.32 940.368 1190.13 924.063 1221.95C902.589 1168.66 884.296 1115.37 869.184 1063.67C921.279 1051.34 976.159 1040.61 1033.03 1032.26ZM673.13 1530.15C532.352 1470.1 441.284 1391.36 441.284 1328.92C441.284 1266.49 532.352 1187.35 673.13 1127.7C707.33 1112.98 744.711 1099.86 783.286 1087.53C805.953 1165.48 835.779 1246.6 872.763 1329.72C836.177 1412.43 806.749 1493.16 784.479 1570.71C745.109 1558.38 707.727 1544.86 673.13 1530.15ZM887.079 2098.43C832.995 2067.41 809.532 1949.3 827.826 1797.39C832.2 1760 839.358 1720.63 848.107 1680.47C926.052 1699.56 1011.15 1714.27 1100.63 1723.82C1154.32 1797.39 1209.99 1864.19 1266.06 1922.65C1136.42 2043.15 1014.73 2109.16 932.017 2109.16C914.121 2108.77 899.01 2105.19 887.079 2098.43ZM1830.37 1795.4C1849.06 1947.31 1825.99 2065.42 1772.31 2096.84C1760.38 2103.99 1744.87 2107.18 1726.57 2107.18C1644.25 2107.18 1522.17 2041.56 1392.53 1921.86C1448.2 1863.4 1503.88 1796.99 1556.77 1723.42C1646.64 1713.87 1731.74 1699.16 1809.69 1679.67C1818.83 1719.84 1825.99 1758.41 1830.37 1795.4ZM1983.47 1530.15C1949.27 1544.86 1911.89 1557.98 1873.32 1570.31C1850.65 1492.37 1820.82 1411.24 1783.84 1328.13C1820.43 1245.41 1849.85 1164.68 1872.12 1087.14C1911.49 1099.46 1948.87 1112.98 1983.87 1127.7C2124.65 1187.75 2215.72 1266.49 2215.72 1328.92C2215.32 1391.36 2124.25 1470.5 1983.47 1530.15Z" fill="#77A4FB"/>
<path d="M1328.1 1510.66C1428.47 1510.66 1509.84 1429.29 1509.84 1328.92C1509.84 1228.55 1428.47 1147.18 1328.1 1147.18C1227.73 1147.18 1146.36 1228.55 1146.36 1328.92C1146.36 1429.29 1227.73 1510.66 1328.1 1510.66Z" fill="#77A4FB"/>
</svg>
