<svg width="143" height="143" viewBox="0 0 143 143" fill="none" xmlns="http://www.w3.org/2000/svg">
<g filter="url(#filter0_d_6_36)">
<circle cx="71.5" cy="67.5" r="65" fill="#FCE7FF" stroke="#79008C" stroke-width="5"/>
<path d="M27.3025 80.8915C27.0521 80.6254 26.7469 80.4141 26.4104 80.2655C26.0739 80.1168 25.714 80.0463 25.3462 80.0463C24.9784 80.0385 24.6184 80.1168 24.2819 80.2576C23.9454 80.4063 23.6403 80.6176 23.3898 80.8837C23.1316 81.1419 22.9281 81.4471 22.7951 81.7836C22.6621 82.1279 22.5917 82.4879 22.5917 82.8478C22.5838 83.2156 22.6543 83.5756 22.7951 83.9121C22.936 84.2486 23.1394 84.5538 23.3977 84.812C23.6482 85.0782 23.9517 85.2888 24.2887 85.4304C24.6257 85.5719 24.9886 85.6412 25.354 85.6337C25.7187 85.6357 26.0799 85.5639 26.4161 85.4227C26.7523 85.2815 27.0565 85.0738 27.3104 84.812C27.5764 84.5616 27.7799 84.2564 27.9207 83.9199C28.0616 83.5834 28.132 83.2234 28.132 82.8557C28.132 82.4879 28.0616 82.1279 27.9207 81.7914C27.7721 81.4471 27.5686 81.1419 27.3025 80.8915ZM60.0518 74.5373C60.0126 76.2902 60.0987 78.0509 60.3022 79.7959H60.2083C59.9892 79.3655 59.504 78.5673 58.7606 77.4014L40.9187 49.3943H35.5035V85.1485H39.6666V59.3012C39.7136 57.6657 39.6432 56.0302 39.471 54.3947H39.6275C39.9249 55.1772 40.3083 55.9285 40.7622 56.6328L59.0892 85.1485H64.2149V49.3943H60.0518V74.5373ZM92.441 81.2201H77.7293V68.8326H90.6021V65.0607H77.7293V53.1818H91.5411V49.3943H73.4645V85.1485H92.4176L92.441 81.2201ZM95.626 49.3943V53.1818H105.877V85.1485H110.04V53.1818H120.409V49.3943H95.626Z" fill="#2F0030"/>
</g>
<defs>
<filter id="filter0_d_6_36" x="0" y="0" width="143" height="143" filterUnits="userSpaceOnUse" color-interpolation-filters="sRGB">
<feFlood flood-opacity="0" result="BackgroundImageFix"/>
<feColorMatrix in="SourceAlpha" type="matrix" values="0 0 0 0 0 0 0 0 0 0 0 0 0 0 0 0 0 0 127 0" result="hardAlpha"/>
<feOffset dy="4"/>
<feGaussianBlur stdDeviation="2"/>
<feComposite in2="hardAlpha" operator="out"/>
<feColorMatrix type="matrix" values="0 0 0 0 0 0 0 0 0 0 0 0 0 0 0 0 0 0 0.25 0"/>
<feBlend mode="normal" in2="BackgroundImageFix" result="effect1_dropShadow_6_36"/>
<feBlend mode="normal" in="SourceGraphic" in2="effect1_dropShadow_6_36" result="shape"/>
</filter>
</defs>
</svg>
