<svg width="135" height="135" viewBox="0 0 135 135" fill="none" xmlns="http://www.w3.org/2000/svg">
<path d="M67.5 132.5C103.399 132.5 132.5 103.399 132.5 67.5C132.5 31.6015 103.399 2.5 67.5 2.5C31.6015 2.5 2.5 31.6015 2.5 67.5C2.5 103.399 31.6015 132.5 67.5 132.5Z" fill="#FFEDF2" stroke="#BE005B" stroke-width="5"/>
<path d="M103.639 65.7L71.0388 33.1C70.0388 32.1 68.6388 31.5 67.2388 31.5C65.8388 31.5 64.4388 32.1 63.4388 33.1L56.4388 40.1L64.6388 48.3C65.4388 47.9 66.2388 47.7 67.2388 47.7C70.6388 47.7 73.2388 50.3 73.2388 53.7C73.2388 54.7 73.0388 55.5 72.6388 56.3L80.6388 64.3C81.4388 63.9 82.2388 63.7 83.2388 63.7C86.6388 63.7 89.2388 66.3 89.2388 69.7C89.2388 73.1 86.6388 75.7 83.2388 75.7C79.8388 75.7 77.2388 73.1 77.2388 69.7C77.2388 68.7 77.4388 67.9 77.8388 67.1L69.8388 59.1C69.6388 59.1 69.4388 59.3 69.2388 59.3V80.1C71.6388 80.9 73.2388 83.1 73.2388 85.7C73.2388 89.1 70.6388 91.7 67.2388 91.7C63.8388 91.7 61.2388 89.1 61.2388 85.7C61.2388 83.1 62.8388 80.9 65.2388 80.1V59.1C62.8388 58.3 61.2388 56.1 61.2388 53.5C61.2388 52.5 61.4388 51.7 61.8388 50.9L53.6388 42.7L30.8388 65.7C29.8388 66.7 29.2388 68.1 29.2388 69.5C29.2388 70.9 29.8388 72.3 30.8388 73.3L63.4388 105.9C64.4388 106.9 65.8388 107.5 67.2388 107.5C68.6388 107.5 70.0388 106.9 71.0388 105.9L103.639 73.3C104.639 72.3 105.239 70.9 105.239 69.5C105.239 68.1 104.639 66.7 103.639 65.7Z" fill="#BE005B"/>
</svg>
