<svg width="143" height="143" viewBox="0 0 143 143" fill="none" xmlns="http://www.w3.org/2000/svg">
<g filter="url(#filter0_d_6_46)">
<path d="M71.5 132.5C107.399 132.5 136.5 103.399 136.5 67.5C136.5 31.6015 107.399 2.5 71.5 2.5C35.6015 2.5 6.5 31.6015 6.5 67.5C6.5 103.399 35.6015 132.5 71.5 132.5Z" fill="white" stroke="#EBA900" stroke-width="5"/>
<path d="M115.721 86.6703C114.86 81.3059 111.362 76.802 101.002 72.5999C97.4035 70.9459 93.3914 69.7614 92.1955 67.0344C91.7709 65.4474 91.715 64.5533 91.9832 63.5922C92.7543 60.4742 96.4759 59.5019 99.4263 60.3959C101.326 61.033 103.125 62.4971 104.21 64.8327C109.283 61.5472 109.272 61.5694 112.815 59.312C111.519 57.3004 110.826 56.3727 109.976 55.5122C106.925 52.1036 102.768 50.349 96.1183 50.4831C94.9671 50.6284 93.805 50.7847 92.6538 50.9301C89.3346 51.7683 86.1718 53.5118 84.3166 55.8475C78.751 62.1618 80.338 73.2146 87.1106 77.7633C93.7825 82.77 103.584 83.91 104.835 88.5926C106.054 94.3258 100.622 96.1809 95.2242 95.5217C91.2456 94.6946 89.0329 92.6718 86.6412 88.995C82.238 91.5431 82.238 91.5431 77.7118 94.147C78.7847 96.4939 79.9133 97.5556 81.7127 99.5896C90.2287 108.229 111.541 107.804 115.363 94.7282C115.519 94.281 116.548 91.2859 115.721 86.6703ZM71.6879 51.1759H60.6909C60.6909 60.6753 60.6463 70.1077 60.6463 79.6072C60.6463 85.6533 60.9593 91.1965 59.9758 92.8952C58.3665 96.2367 54.1979 95.8233 52.298 95.175C50.3646 94.225 49.3811 92.8728 48.2412 90.9618C47.9283 90.4142 47.6936 89.9895 47.6152 89.956C44.6314 91.7776 41.6585 93.6104 38.6746 95.4321C40.1611 98.4831 42.3514 101.132 45.1565 102.853C49.3475 105.367 54.9801 106.138 60.8698 104.786C64.7031 103.669 68.0111 101.355 69.7433 97.8349C72.2467 93.2193 71.7103 87.6314 71.6879 81.4512C71.7438 71.3706 71.6879 61.29 71.6879 51.1759Z" fill="black"/>
</g>
<defs>
<filter id="filter0_d_6_46" x="0" y="0" width="143" height="143" filterUnits="userSpaceOnUse" color-interpolation-filters="sRGB">
<feFlood flood-opacity="0" result="BackgroundImageFix"/>
<feColorMatrix in="SourceAlpha" type="matrix" values="0 0 0 0 0 0 0 0 0 0 0 0 0 0 0 0 0 0 127 0" result="hardAlpha"/>
<feOffset dy="4"/>
<feGaussianBlur stdDeviation="2"/>
<feComposite in2="hardAlpha" operator="out"/>
<feColorMatrix type="matrix" values="0 0 0 0 0 0 0 0 0 0 0 0 0 0 0 0 0 0 0.25 0"/>
<feBlend mode="normal" in2="BackgroundImageFix" result="effect1_dropShadow_6_46"/>
<feBlend mode="normal" in="SourceGraphic" in2="effect1_dropShadow_6_46" result="shape"/>
</filter>
</defs>
</svg>
