<svg width="143" height="143" viewBox="0 0 143 143" fill="none" xmlns="http://www.w3.org/2000/svg">
<g filter="url(#filter0_d_6_39)">
<circle cx="71.5" cy="67.5" r="65" fill="#DDE9FF" stroke="#003191" stroke-width="5"/>
<path d="M33 73.9747V40L62.4163 56.9874V68.3123L42.8054 56.9874V79.6372L33 73.9747Z" fill="#1348B0"/>
<path d="M62.4163 56.9831L91.8325 40.0002V73.966L72.2217 85.2879L62.4163 79.627L82.0271 68.305V56.9831L62.4163 68.305V56.9831Z" fill="#003191"/>
<path d="M62.4163 79.6373V90.9593L82.0271 102.281V90.9593L62.4163 79.6373Z" fill="#003191"/>
<path d="M82.0271 102.281L111.443 85.2955V62.6478L101.638 68.3098V79.6336L82.0271 90.9574V102.281ZM101.638 56.9859V45.6621L111.443 40.0002V51.324L101.638 56.9859Z" fill="#101E50"/>
</g>
<defs>
<filter id="filter0_d_6_39" x="0" y="0" width="143" height="143" filterUnits="userSpaceOnUse" color-interpolation-filters="sRGB">
<feFlood flood-opacity="0" result="BackgroundImageFix"/>
<feColorMatrix in="SourceAlpha" type="matrix" values="0 0 0 0 0 0 0 0 0 0 0 0 0 0 0 0 0 0 127 0" result="hardAlpha"/>
<feOffset dy="4"/>
<feGaussianBlur stdDeviation="2"/>
<feComposite in2="hardAlpha" operator="out"/>
<feColorMatrix type="matrix" values="0 0 0 0 0 0 0 0 0 0 0 0 0 0 0 0 0 0 0.25 0"/>
<feBlend mode="normal" in2="BackgroundImageFix" result="effect1_dropShadow_6_39"/>
<feBlend mode="normal" in="SourceGraphic" in2="effect1_dropShadow_6_39" result="shape"/>
</filter>
</defs>
</svg>
