<svg width="141" height="141" viewBox="0 0 141 141" fill="none" xmlns="http://www.w3.org/2000/svg">
<g filter="url(#filter0_d_6_49)">
<circle cx="70.5" cy="66.5" r="64.5" fill="#E9EEFF" stroke="#003191" stroke-width="4"/>
<path d="M116.352 66.4964C116.352 60.4183 108.741 54.6581 97.0705 51.086C99.7636 39.1917 98.5667 29.7285 93.2928 26.6988C92.0771 25.9881 90.6558 25.6515 89.1035 25.6515V29.822C89.9638 29.822 90.6558 29.9903 91.2356 30.3083C93.779 31.767 94.8824 37.3215 94.0221 44.4656C93.8164 46.2236 93.4798 48.075 93.0683 49.9639C89.4028 49.0662 85.4006 48.3743 81.1927 47.9254C78.6679 44.4656 76.0496 41.3237 73.4127 38.5745C79.5095 32.9078 85.2323 29.8033 89.1222 29.8033V25.6328C83.9792 25.6328 77.2466 29.2984 70.4391 35.657C63.6316 29.3358 56.8989 25.7076 51.7559 25.7076V29.8781C55.6272 29.8781 61.3687 32.9639 67.4655 38.5932C64.8472 41.3424 62.229 44.4656 59.7416 47.9254C55.515 48.3743 51.5128 49.0662 47.8472 49.9826C47.4171 48.1124 47.0992 46.2984 46.8747 44.5591C45.9958 37.415 47.0805 31.8605 49.6052 30.3831C50.1663 30.0465 50.8956 29.8968 51.7559 29.8968V25.7263C50.185 25.7263 48.7636 26.063 47.5293 26.7736C42.2741 29.8033 41.0959 39.2478 43.8076 51.1047C32.1751 54.6955 24.6008 60.437 24.6008 66.4964C24.6008 72.5745 32.2125 78.3346 43.8824 81.9067C41.1894 93.8011 42.3863 103.264 47.6602 106.294C48.8758 107.005 50.2972 107.341 51.8681 107.341C57.0112 107.341 63.7438 103.676 70.5513 97.317C77.3588 103.638 84.0914 107.266 89.2345 107.266C90.8054 107.266 92.2268 106.93 93.4611 106.219C98.7163 103.189 99.8945 93.745 97.1827 81.888C108.778 78.3159 116.352 72.5558 116.352 66.4964ZM92.0023 54.0222C91.3104 56.4348 90.4501 58.9221 89.4776 61.4095C88.7108 59.9133 87.9066 58.4172 87.0276 56.921C86.1674 55.4249 85.251 53.9661 84.3346 52.5448C86.9902 52.9375 89.5524 53.4238 92.0023 54.0222ZM83.4369 73.9397C81.9781 76.4645 80.482 78.8583 78.9297 81.0838C76.1432 81.3269 73.3192 81.4579 70.4765 81.4579C67.6525 81.4579 64.8285 81.3269 62.0607 81.1025C60.5084 78.877 58.9935 76.5019 57.5348 73.9958C56.1135 71.5459 54.823 69.0585 53.6448 66.5525C54.8043 64.0464 56.1135 61.5404 57.5161 59.0904C58.9749 56.5657 60.471 54.1718 62.0233 51.9463C64.8098 51.7032 67.6338 51.5723 70.4765 51.5723C73.3005 51.5723 76.1245 51.7032 78.8923 51.9276C80.4446 54.1531 81.9594 56.5283 83.4182 59.0343C84.8395 61.4843 86.1299 63.9716 87.3082 66.4777C86.1299 68.9837 84.8395 71.4898 83.4369 73.9397ZM89.4776 71.5085C90.4875 74.0145 91.3478 76.5206 92.0584 78.9518C89.6085 79.5503 87.0276 80.0552 84.3533 80.448C85.2697 79.0079 86.1861 77.5305 87.0463 76.0156C87.9066 74.5195 88.7108 73.0046 89.4776 71.5085ZM70.5139 91.4633C68.7746 89.668 67.0354 87.6669 65.3148 85.4788C66.9979 85.5536 68.7185 85.6097 70.4578 85.6097C72.2158 85.6097 73.955 85.5723 75.6569 85.4788C73.9737 87.6669 72.2345 89.668 70.5139 91.4633ZM56.5997 80.448C53.944 80.0552 51.3819 79.569 48.9319 78.9705C49.6239 76.558 50.4842 74.0706 51.4567 71.5833C52.2235 73.0794 53.0277 74.5756 53.9066 76.0717C54.7856 77.5679 55.6833 79.0266 56.5997 80.448ZM70.4204 41.5294C72.1597 43.3248 73.8989 45.3259 75.6195 47.514C73.9363 47.4392 72.2158 47.3831 70.4765 47.3831C68.7185 47.3831 66.9792 47.4205 65.2774 47.514C66.9605 45.3259 68.6998 43.3248 70.4204 41.5294ZM56.581 52.5448C55.6646 53.9848 54.7482 55.4623 53.8879 56.9771C53.0277 58.4733 52.2235 59.9694 51.4567 61.4656C50.4468 58.9595 49.5865 56.4535 48.8758 54.0222C51.3258 53.4425 53.9066 52.9375 56.581 52.5448ZM39.6558 75.9595C33.0354 73.1355 28.7526 69.4326 28.7526 66.4964C28.7526 63.5602 33.0354 59.8385 39.6558 57.0332C41.2642 56.3413 43.0222 55.7241 44.8362 55.1443C45.9022 58.8099 47.3049 62.6251 49.0442 66.5338C47.3236 70.4238 45.9397 74.2202 44.8924 77.8671C43.0409 77.2873 41.2829 76.6515 39.6558 75.9595ZM49.7174 102.684C47.174 101.226 46.0706 95.6713 46.9309 88.5272C47.1366 86.7692 47.4732 84.9177 47.8846 83.0288C51.5502 83.9265 55.5524 84.6185 59.7603 85.0673C62.2851 88.5272 64.9033 91.6691 67.5403 94.4182C61.4435 100.085 55.7207 103.189 51.8307 103.189C50.9892 103.171 50.2785 103.002 49.7174 102.684ZM94.0782 88.4336C94.9572 95.5778 93.8725 101.132 91.3478 102.61C90.7867 102.946 90.0573 103.096 89.1971 103.096C85.3258 103.096 79.5843 100.01 73.4875 94.3808C76.1058 91.6317 78.724 88.5085 81.2114 85.0486C85.438 84.5998 89.4402 83.9078 93.1057 82.9914C93.5359 84.8803 93.8725 86.6944 94.0782 88.4336ZM101.278 75.9595C99.6701 76.6515 97.9121 77.2686 96.098 77.8484C95.032 74.1828 93.6294 70.3677 91.8901 66.459C93.6107 62.569 94.9946 58.7725 96.0419 55.1256C97.8934 55.7054 99.6514 56.3413 101.297 57.0332C107.918 59.8572 112.2 63.5602 112.2 66.4964C112.182 69.4326 107.899 73.1542 101.278 75.9595Z" fill="#1348B0"/>
<path d="M70.4581 75.0431C75.1784 75.0431 79.0049 71.2166 79.0049 66.4964C79.0049 61.7762 75.1784 57.9496 70.4581 57.9496C65.7379 57.9496 61.9114 61.7762 61.9114 66.4964C61.9114 71.2166 65.7379 75.0431 70.4581 75.0431Z" fill="#1348B0"/>
</g>
<defs>
<filter id="filter0_d_6_49" x="0" y="0" width="141" height="141" filterUnits="userSpaceOnUse" color-interpolation-filters="sRGB">
<feFlood flood-opacity="0" result="BackgroundImageFix"/>
<feColorMatrix in="SourceAlpha" type="matrix" values="0 0 0 0 0 0 0 0 0 0 0 0 0 0 0 0 0 0 127 0" result="hardAlpha"/>
<feOffset dy="4"/>
<feGaussianBlur stdDeviation="2"/>
<feComposite in2="hardAlpha" operator="out"/>
<feColorMatrix type="matrix" values="0 0 0 0 0 0 0 0 0 0 0 0 0 0 0 0 0 0 0.25 0"/>
<feBlend mode="normal" in2="BackgroundImageFix" result="effect1_dropShadow_6_49"/>
<feBlend mode="normal" in="SourceGraphic" in2="effect1_dropShadow_6_49" result="shape"/>
</filter>
</defs>
</svg>
